<?xml version="1.0" encoding="UTF-8" standalone="no"?>
<!-- Created with Inkscape (http://www.inkscape.org/) -->

<svg
   xmlns:dc="http://purl.org/dc/elements/1.1/"
   xmlns:cc="http://creativecommons.org/ns#"
   xmlns:rdf="http://www.w3.org/1999/02/22-rdf-syntax-ns#"
   xmlns:svg="http://www.w3.org/2000/svg"
   xmlns="http://www.w3.org/2000/svg"
   xmlns:xlink="http://www.w3.org/1999/xlink"
   xmlns:sodipodi="http://sodipodi.sourceforge.net/DTD/sodipodi-0.dtd"
   xmlns:inkscape="http://www.inkscape.org/namespaces/inkscape"
   width="210mm"
   height="297mm"
   viewBox="0 0 210 297"
   version="1.1"
   id="svg7544"
   inkscape:version="0.92.4 (5da689c313, 2019-01-14)"
   sodipodi:docname="logo_collage.svg"
   inkscape:export-filename="/home/flann/spiced/homesweetpi/images/logo_collage.svg.png"
   inkscape:export-xdpi="96"
   inkscape:export-ydpi="96">
  <defs
     id="defs7538">
    <inkscape:perspective
       id="perspective10"
       inkscape:persp3d-origin="372.04724 : 350.78739 : 1"
       inkscape:vp_z="744.09448 : 526.18109 : 1"
       inkscape:vp_y="0 : 1000 : 0"
       inkscape:vp_x="0 : 526.18109 : 1"
       sodipodi:type="inkscape:persp3d" />
    <inkscape:perspective
       sodipodi:type="inkscape:persp3d"
       inkscape:vp_x="0 : 0.5 : 1"
       inkscape:vp_y="0 : 1000 : 0"
       inkscape:vp_z="1 : 0.5 : 1"
       inkscape:persp3d-origin="0.5 : 0.33333333 : 1"
       id="perspective2824" />
    <inkscape:perspective
       sodipodi:type="inkscape:persp3d"
       inkscape:vp_x="0 : 0.5 : 1"
       inkscape:vp_y="0 : 1000 : 0"
       inkscape:vp_z="1 : 0.5 : 1"
       inkscape:persp3d-origin="0.5 : 0.33333333 : 1"
       id="perspective2840" />
    <inkscape:perspective
       sodipodi:type="inkscape:persp3d"
       inkscape:vp_x="0 : 0.5 : 1"
       inkscape:vp_y="0 : 1000 : 0"
       inkscape:vp_z="1 : 0.5 : 1"
       inkscape:persp3d-origin="0.5 : 0.33333333 : 1"
       id="perspective2878" />
    <inkscape:perspective
       sodipodi:type="inkscape:persp3d"
       inkscape:vp_x="0 : 0.5 : 1"
       inkscape:vp_y="0 : 1000 : 0"
       inkscape:vp_z="1 : 0.5 : 1"
       inkscape:persp3d-origin="0.5 : 0.33333333 : 1"
       id="perspective2894" />
    <inkscape:perspective
       sodipodi:type="inkscape:persp3d"
       inkscape:vp_x="0 : 0.5 : 1"
       inkscape:vp_y="0 : 1000 : 0"
       inkscape:vp_z="1 : 0.5 : 1"
       inkscape:persp3d-origin="0.5 : 0.33333333 : 1"
       id="perspective2910" />
    <inkscape:perspective
       sodipodi:type="inkscape:persp3d"
       inkscape:vp_x="0 : 0.5 : 1"
       inkscape:vp_y="0 : 1000 : 0"
       inkscape:vp_z="1 : 0.5 : 1"
       inkscape:persp3d-origin="0.5 : 0.33333333 : 1"
       id="perspective2926" />
    <inkscape:perspective
       sodipodi:type="inkscape:persp3d"
       inkscape:vp_x="0 : 0.5 : 1"
       inkscape:vp_y="0 : 1000 : 0"
       inkscape:vp_z="1 : 0.5 : 1"
       inkscape:persp3d-origin="0.5 : 0.33333333 : 1"
       id="perspective2976" />
    <inkscape:perspective
       sodipodi:type="inkscape:persp3d"
       inkscape:vp_x="0 : 0.5 : 1"
       inkscape:vp_y="0 : 1000 : 0"
       inkscape:vp_z="1 : 0.5 : 1"
       inkscape:persp3d-origin="0.5 : 0.33333333 : 1"
       id="perspective3020" />
    <inkscape:perspective
       sodipodi:type="inkscape:persp3d"
       inkscape:vp_x="0 : 0.5 : 1"
       inkscape:vp_y="0 : 1000 : 0"
       inkscape:vp_z="1 : 0.5 : 1"
       inkscape:persp3d-origin="0.5 : 0.33333333 : 1"
       id="perspective3036" />
    <inkscape:perspective
       sodipodi:type="inkscape:persp3d"
       inkscape:vp_x="0 : 0.5 : 1"
       inkscape:vp_y="0 : 1000 : 0"
       inkscape:vp_z="1 : 0.5 : 1"
       inkscape:persp3d-origin="0.5 : 0.33333333 : 1"
       id="perspective3052" />
    <inkscape:perspective
       sodipodi:type="inkscape:persp3d"
       inkscape:vp_x="0 : 0.5 : 1"
       inkscape:vp_y="0 : 1000 : 0"
       inkscape:vp_z="1 : 0.5 : 1"
       inkscape:persp3d-origin="0.5 : 0.33333333 : 1"
       id="perspective3866" />
    <linearGradient
       inkscape:collect="always"
       id="linearGradient11301">
      <stop
         style="stop-color:#ffe052;stop-opacity:1"
         offset="0"
         id="stop11303" />
      <stop
         style="stop-color:#ffc331;stop-opacity:1"
         offset="1"
         id="stop11305" />
    </linearGradient>
    <linearGradient
       inkscape:collect="always"
       xlink:href="#linearGradient11301"
       id="linearGradient11307"
       x1="89.136749"
       y1="111.92053"
       x2="147.77737"
       y2="168.1012"
       gradientUnits="userSpaceOnUse" />
    <linearGradient
       inkscape:collect="always"
       id="linearGradient9515">
      <stop
         style="stop-color:#387eb8;stop-opacity:1"
         offset="0"
         id="stop9517" />
      <stop
         style="stop-color:#366994;stop-opacity:1"
         offset="1"
         id="stop9519" />
    </linearGradient>
    <linearGradient
       inkscape:collect="always"
       xlink:href="#linearGradient9515"
       id="linearGradient9521"
       x1="55.549179"
       y1="77.070274"
       x2="110.14919"
       y2="131.85291"
       gradientUnits="userSpaceOnUse" />
    <linearGradient
       id="linearGradient3027"
       spreadMethod="pad"
       gradientTransform="matrix(-4.02e-6,-91.8907,-91.8907,4.02e-6,85.8809,161.434)"
       gradientUnits="userSpaceOnUse"
       y2="0"
       x2="1"
       y1="0"
       x1="0">
      <stop
         id="stop3029"
         offset="0"
         style="stop-opacity:1;stop-color:#97d9f6" />
      <stop
         id="stop3031"
         offset="0.920245"
         style="stop-opacity:1;stop-color:#0f80cc" />
      <stop
         id="stop3033"
         offset="1"
         style="stop-opacity:1;stop-color:#0f80cc" />
    </linearGradient>
    <linearGradient
       y2="-9.1082983"
       x2="-6.7410073"
       y1="-9.1082983"
       x1="-15.614694"
       spreadMethod="pad"
       gradientTransform="matrix(-4.02e-7,-9.18907,-9.18907,4.02e-7,8.58809,16.1434)"
       gradientUnits="userSpaceOnUse"
       id="linearGradient5421"
       xlink:href="#linearGradient3027"
       inkscape:collect="always" />
  </defs>
  <sodipodi:namedview
     id="base"
     pagecolor="#ffffff"
     bordercolor="#666666"
     borderopacity="1.0"
     inkscape:pageopacity="0.0"
     inkscape:pageshadow="2"
     inkscape:zoom="0.24748737"
     inkscape:cx="-397.34035"
     inkscape:cy="799.17566"
     inkscape:document-units="mm"
     inkscape:current-layer="layer1"
     showgrid="false"
     inkscape:window-width="1296"
     inkscape:window-height="704"
     inkscape:window-x="70"
     inkscape:window-y="27"
     inkscape:window-maximized="1" />
  <metadata
     id="metadata7541">
    <rdf:RDF>
      <cc:Work
         rdf:about="">
        <dc:format>image/svg+xml</dc:format>
        <dc:type
           rdf:resource="http://purl.org/dc/dcmitype/StillImage" />
        <dc:title></dc:title>
      </cc:Work>
    </rdf:RDF>
  </metadata>
  <g
     inkscape:label="Layer 1"
     inkscape:groupmode="layer"
     id="layer1">
    <g
       id="g8450"
       transform="matrix(0.16256522,0,0,0.16256522,80.714523,88.728134)">
      <g
         style="clip-rule:nonzero;fill-rule:nonzero;stroke:#000000;stroke-miterlimit:4"
         id="orginal">
	</g>
      <g
         style="clip-rule:nonzero;fill:none;fill-rule:nonzero;stroke:#ffffff;stroke-width:12.46510029;stroke-linecap:round;stroke-linejoin:round;stroke-miterlimit:4"
         id="Layer_x0020_3">
<path
   id="path8403"
   d="m 323.205,324.227 c 2.833,-23.601 1.984,-27.062 19.563,-23.239 l 4.463,0.392 c 13.517,0.615 31.199,-2.174 41.587,-7 22.362,-10.376 35.622,-27.7 13.572,-23.148 -50.297,10.376 -53.755,-6.655 -53.755,-6.655 C 401.746,185.774 423.948,85.741 404.784,61.255 352.514,-5.534 262.036,26.049 260.522,26.869 l -0.482,0.089 c -9.938,-2.062 -21.06,-3.294 -33.554,-3.496 -22.761,-0.374 -40.032,5.967 -53.133,15.904 0,0 -161.408,-66.498 -153.899,83.628 1.597,31.936 45.777,241.655 98.47,178.31 19.259,-23.163 37.871,-42.748 37.871,-42.748 9.242,6.14 20.307,9.272 31.912,8.147 l 0.897,-0.765 c -0.281,2.876 -0.157,5.689 0.359,9.019 -13.572,15.167 -9.584,17.83 -36.723,23.416 -27.457,5.659 -11.326,15.734 -0.797,18.367 12.768,3.193 42.305,7.716 62.268,-20.224 l -0.795,3.188 c 5.325,4.26 4.965,30.619 5.72,49.452 0.756,18.834 2.017,36.409 5.856,46.771 3.839,10.36 8.369,37.05 44.036,29.406 29.809,-6.388 52.6,-15.582 54.677,-101.107"
   style="fill:#000000;stroke:#000000;stroke-width:37.39530182;stroke-linecap:butt;stroke-linejoin:miter"
   inkscape:connector-curvature="0" />

<path
   id="path8405"
   d="m 402.395,271.23 c -50.302,10.376 -53.76,-6.655 -53.76,-6.655 53.111,-78.808 75.313,-178.843 56.153,-203.326 -52.27,-66.785 -142.752,-35.2 -144.262,-34.38 l -0.486,0.087 c -9.938,-2.063 -21.06,-3.292 -33.56,-3.496 -22.761,-0.373 -40.026,5.967 -53.127,15.902 0,0 -161.411,-66.495 -153.904,83.63 1.597,31.938 45.776,241.657 98.471,178.312 19.26,-23.163 37.869,-42.748 37.869,-42.748 9.243,6.14 20.308,9.272 31.908,8.147 l 0.901,-0.765 c -0.28,2.876 -0.152,5.689 0.361,9.019 -13.575,15.167 -9.586,17.83 -36.723,23.416 -27.459,5.659 -11.328,15.734 -0.796,18.367 12.768,3.193 42.307,7.716 62.266,-20.224 l -0.796,3.188 c 5.319,4.26 9.054,27.711 8.428,48.969 -0.626,21.259 -1.044,35.854 3.147,47.254 4.191,11.4 8.368,37.05 44.042,29.406 29.809,-6.388 45.256,-22.942 47.405,-50.555 1.525,-19.631 4.976,-16.729 5.194,-34.28 l 2.768,-8.309 c 3.192,-26.611 0.507,-35.196 18.872,-31.203 l 4.463,0.392 c 13.517,0.615 31.208,-2.174 41.591,-7 22.358,-10.376 35.618,-27.7 13.573,-23.148 z"
   style="fill:#336791;stroke:none"
   inkscape:connector-curvature="0" />

<path
   id="path8407"
   d="m 215.866,286.484 c -1.385,49.516 0.348,99.377 5.193,111.495 4.848,12.118 15.223,35.688 50.9,28.045 29.806,-6.39 40.651,-18.756 45.357,-46.051 3.466,-20.082 10.148,-75.854 11.005,-87.281"
   inkscape:connector-curvature="0" />

<path
   id="path8409"
   d="m 173.104,38.256 c 0,0 -161.521,-66.016 -154.012,84.109 1.597,31.938 45.779,241.664 98.473,178.316 19.256,-23.166 36.671,-41.335 36.671,-41.335"
   inkscape:connector-curvature="0" />

<path
   id="path8411"
   d="m 260.349,26.207 c -5.591,1.753 89.848,-34.889 144.087,34.417 19.159,24.484 -3.043,124.519 -56.153,203.329"
   inkscape:connector-curvature="0" />

<path
   id="path8413"
   d="m 348.282,263.953 c 0,0 3.461,17.036 53.764,6.653 22.04,-4.552 8.776,12.774 -13.577,23.155 -18.345,8.514 -59.474,10.696 -60.146,-1.069 -1.729,-30.355 21.647,-21.133 19.96,-28.739 -1.525,-6.85 -11.979,-13.573 -18.894,-30.338 -6.037,-14.633 -82.796,-126.849 21.287,-110.183 3.813,-0.789 -27.146,-99.002 -124.553,-100.599 -97.385,-1.597 -94.19,119.762 -94.19,119.762"
   style="stroke-linejoin:bevel"
   inkscape:connector-curvature="0" />

<path
   id="path8415"
   d="m 188.604,274.334 c -13.577,15.166 -9.584,17.829 -36.723,23.417 -27.459,5.66 -11.326,15.733 -0.797,18.365 12.768,3.195 42.307,7.718 62.266,-20.229 6.078,-8.509 -0.036,-22.086 -8.385,-25.547 -4.034,-1.671 -9.428,-3.765 -16.361,3.994 z"
   inkscape:connector-curvature="0" />

<path
   id="path8417"
   d="m 187.715,274.069 c -1.368,-8.917 2.93,-19.528 7.536,-31.942 6.922,-18.626 22.893,-37.255 10.117,-96.339 -9.523,-44.029 -73.396,-9.163 -73.436,-3.193 -0.039,5.968 2.889,30.26 -1.067,58.548 -5.162,36.913 23.488,68.132 56.479,64.938"
   inkscape:connector-curvature="0" />

<path
   id="path8419"
   d="m 172.517,141.7 c -0.288,2.039 3.733,7.48 8.976,8.207 5.234,0.73 9.714,-3.522 9.998,-5.559 0.284,-2.039 -3.732,-4.285 -8.977,-5.015 -5.237,-0.731 -9.719,0.333 -9.996,2.367 z"
   style="fill:#ffffff;stroke-width:4.15500021;stroke-linecap:butt;stroke-linejoin:miter"
   inkscape:connector-curvature="0" />

<path
   id="path8421"
   d="m 331.941,137.543 c 0.284,2.039 -3.732,7.48 -8.976,8.207 -5.238,0.73 -9.718,-3.522 -10.005,-5.559 -0.277,-2.039 3.74,-4.285 8.979,-5.015 5.239,-0.73 9.718,0.333 10.002,2.368 z"
   style="fill:#ffffff;stroke-width:2.0775001;stroke-linecap:butt;stroke-linejoin:miter"
   inkscape:connector-curvature="0" />

<path
   id="path8423"
   d="m 350.676,123.432 c 0.863,15.994 -3.445,26.888 -3.988,43.914 -0.804,24.748 11.799,53.074 -7.191,81.435"
   inkscape:connector-curvature="0" />

<path
   id="path8425"
   d="M 0,60.232"
   style="stroke-width:3"
   inkscape:connector-curvature="0" />

</g>
    </g>
    <g
       transform="matrix(0.4592335,0,0,0.4592335,-207.42286,-2.4835939)"
       id="layer1-1"
       inkscape:label="Calque 1">
      <g
         transform="translate(428.42338,184.2561)"
         id="g1894">
        <path
           id="path8615"
           d="M 99.75,67.46875 C 71.718268,67.468752 73.46875,79.625 73.46875,79.625 L 73.5,92.21875 h 26.75 V 96 H 62.875 c 0,0 -17.9375,-2.034276 -17.9375,26.25 -2e-6,28.28427 15.65625,27.28125 15.65625,27.28125 h 9.34375 v -13.125 c 0,0 -0.503652,-15.65625 15.40625,-15.65625 15.9099,0 26.53125,0 26.53125,0 0,0 14.90625,0.24096 14.90625,-14.40625 0,-14.647206 0,-24.21875 0,-24.21875 0,-2e-6 2.26318,-14.65625 -27.03125,-14.65625 z M 85,75.9375 c 2.661429,-2e-6 4.8125,2.151071 4.8125,4.8125 2e-6,2.661429 -2.151071,4.8125 -4.8125,4.8125 -2.661429,2e-6 -4.8125,-2.151071 -4.8125,-4.8125 -2e-6,-2.661429 2.151071,-4.8125 4.8125,-4.8125 z"
           style="color:#000000;display:inline;overflow:visible;visibility:visible;opacity:1;fill:url(#linearGradient9521);fill-opacity:1;fill-rule:nonzero;stroke:none;stroke-width:1;stroke-linecap:butt;stroke-linejoin:miter;stroke-miterlimit:4;stroke-dasharray:none;stroke-dashoffset:0;stroke-opacity:1;marker:none;marker-start:none;marker-mid:none;marker-end:none"
           inkscape:connector-curvature="0" />
        <path
           style="color:#000000;display:inline;overflow:visible;visibility:visible;opacity:1;fill:url(#linearGradient11307);fill-opacity:1;fill-rule:nonzero;stroke:none;stroke-width:1;stroke-linecap:butt;stroke-linejoin:miter;stroke-miterlimit:4;stroke-dasharray:none;stroke-dashoffset:0;stroke-opacity:1;marker:none;marker-start:none;marker-mid:none;marker-end:none"
           d="m 100.5461,177.31485 c 28.03174,0 26.28125,-12.15625 26.28125,-12.15625 l -0.0312,-12.59375 h -26.75 v -3.78125 h 37.375 c 0,0 17.9375,2.03427 17.9375,-26.25001 10e-6,-28.284267 -15.65625,-27.281247 -15.65625,-27.281247 h -9.34375 v 13.124997 c 0,0 0.50366,15.65625 -15.40625,15.65625 -15.909902,0 -26.531252,0 -26.531252,0 0,0 -14.90625,-0.24096 -14.90625,14.40626 0,14.6472 0,24.21875 0,24.21875 0,0 -2.26318,14.65625 27.031252,14.65625 z m 14.75,-8.46875 c -2.66143,0 -4.8125,-2.15107 -4.8125,-4.8125 0,-2.66143 2.15107,-4.8125 4.8125,-4.8125 2.66143,0 4.8125,2.15107 4.8125,4.8125 1e-5,2.66143 -2.15107,4.8125 -4.8125,4.8125 z"
           id="path8620"
           inkscape:connector-curvature="0" />
      </g>
    </g>
    <g
       id="g8530"
       transform="matrix(0.08891085,0,0,0.08891085,25.898904,16.579146)">
      <path
         id="path8480"
         d="m 158.38,1.6562 c -3.6193,0.11232 -7.5172,1.4493 -11.938,4.9375 -10.83,-4.1763 -21.33,-5.6271 -30.72,2.8751 C 101.222,7.588 96.51,11.469 92.94,16 89.757,15.934 69.121,12.728 59.658,26.844 35.877,24.03 28.361,40.832 36.877,56.5 c -4.8569,7.519 -9.8895,14.947 1.4688,29.281 -4.018,7.9835 -1.5274,16.644 7.9375,27.125 -2.4979,11.223 2.4121,19.141 11.219,25.312 -1.6471,15.358 14.084,24.287 18.781,27.469 1.8037,8.9487 5.5629,17.393 23.531,22.062 2.9632,13.336 13.762,15.639 24.219,18.438 -34.562,20.09 -64.201,46.523 -64,111.38 l -5.0625,9.0312 c -39.63,24.1 -75.285,101.56 -19.53,164.52 3.6419,19.708 9.7496,33.864 15.188,49.531 8.1338,63.131 61.218,92.692 75.219,96.188 20.517,15.628 42.368,30.457 71.938,40.844 27.875,28.749 58.074,39.706 88.438,39.688 0.44515,-2.8e-4 0.89853,0.005 1.3438,0 30.364,0.0189 60.562,-10.938 88.438,-39.688 29.569,-10.387 51.421,-25.216 71.938,-40.844 14.001,-3.4959 67.085,-33.057 75.219,-96.188 5.4379,-15.667 11.546,-29.823 15.188,-49.531 55.754,-62.965 20.1,-140.43 -19.531,-164.53 l -5.07,-9.03 c 0.20067,-64.852 -29.438,-91.285 -64,-111.38 10.457,-2.7984 21.256,-5.1014 24.219,-18.438 17.968,-4.6698 21.728,-13.114 23.531,-22.062 4.6978,-3.1813 20.428,-12.111 18.781,-27.469 8.8067,-6.1716 13.717,-14.09 11.219,-25.312 9.4649,-10.481 11.956,-19.141 7.9375,-27.125 11.36,-14.328 6.32,-21.756 1.47,-29.275 8.51,-15.668 1,-32.47 -22.79,-29.656 -9.46,-14.116 -30.09,-10.91 -33.28,-10.844 -3.57,-4.531 -8.28,-8.412 -22.78,-6.5312 -9.39,-8.5022 -19.89,-7.0514 -30.72,-2.875 -12.86,-10.148 -21.37,-2.0133 -31.09,1.0624 -15.57,-5.0877 -19.13,1.881 -26.78,4.7188 -16.98,-3.5881 -22.14,4.224 -30.28,12.469 l -9.4688,-0.1875 c -25.611,15.093 -38.334,45.826 -42.844,61.625 -4.5121,-15.802 -17.206,-46.535 -42.812,-61.625 l -9.4688,0.1875 c -8.15,-8.245 -13.31,-16.057 -30.29,-12.469 -7.65,-2.8378 -11.2,-9.8065 -26.78,-4.7188 -6.3797,-2.0185 -12.247,-6.2144 -19.156,-6 z"
         inkscape:connector-curvature="0"
         style="fill:#000000" />
      <path
         id="path8482"
         d="m 107.39,68.056 c 67.948,35.031 107.45,63.369 129.09,87.504 -11.082,44.418 -68.896,46.445 -90.036,45.199 4.3284,-2.0147 7.9399,-4.4278 9.2205,-8.1357 -5.3045,-3.7698 -24.113,-0.39719 -37.244,-7.7742 5.0441,-1.045 7.4035,-2.063 9.7629,-5.7854 -12.406,-3.9567 -25.769,-7.3664 -33.628,-13.921 4.2413,0.0524 8.2012,0.9488 13.74,-2.8927 -11.112,-5.9882 -22.969,-10.734 -32.181,-19.887 5.7452,-0.14063 11.939,-0.0568 13.74,-2.1695 -10.17,-6.3007 -18.751,-13.308 -25.854,-20.972 8.04,0.97052 11.435,0.13478 13.379,-1.2656 -7.6878,-7.8742 -17.418,-14.523 -22.057,-24.226 5.9696,2.0575 11.431,2.8451 15.368,-0.1808 -2.6124,-5.8935 -13.805,-9.3696 -20.249,-23.142 6.2844,0.60938 12.95,1.3711 14.283,0 -2.917,-11.884 -7.922,-18.565 -12.831,-25.487 13.45,-0.2 33.828,0.052 32.905,-1.085 l -8.3165,-8.4973 c 13.138,-3.5372 26.581,0.56816 36.34,3.6159 4.3819,-3.4577 -0.0776,-7.83 -5.4238,-12.294 11.165,1.4906 21.254,4.0574 30.373,7.5934 4.8724,-4.3993 -3.1639,-8.7987 -7.051,-13.198 17.249,3.2726 24.557,7.8707 31.82,12.475 5.2694,-5.0508 0.30166,-9.3433 -3.2543,-13.74 13.006,4.817 19.705,11.036 26.758,17.175 2.3912,-3.2271 6.0749,-5.5924 1.6272,-13.379 9.2342,5.3227 16.189,11.595 21.334,18.622 5.7134,-3.6379 3.4039,-8.613 3.4351,-13.198 9.5966,7.8065 15.687,16.114 23.142,24.226 1.5017,-1.0934 2.8166,-4.8017 3.9775,-10.667 22.895,22.212 55.246,78.158 8.3165,100.34 -39.94,-32.94 -87.64,-56.883 -140.5,-74.844 z"
         inkscape:connector-curvature="0"
         style="fill:#75a928" />
      <path
         id="path8484"
         d="m 467.92,68.056 c -67.94,35.034 -107.44,63.364 -129.08,87.504 11.082,44.418 68.896,46.445 90.036,45.199 -4.3284,-2.0147 -7.9399,-4.4278 -9.2205,-8.1357 5.3045,-3.7698 24.113,-0.39719 37.244,-7.7742 -5.0441,-1.045 -7.4035,-2.063 -9.7629,-5.7854 12.406,-3.9567 25.769,-7.3664 33.628,-13.921 -4.2413,0.0524 -8.2012,0.9488 -13.74,-2.8927 11.112,-5.9882 22.969,-10.734 32.181,-19.887 -5.7452,-0.14063 -11.939,-0.0568 -13.74,-2.1695 10.17,-6.3007 18.751,-13.308 25.854,-20.972 -8.04,0.97052 -11.435,0.13478 -13.379,-1.2656 7.6878,-7.8742 17.418,-14.523 22.057,-24.226 -5.9696,2.0575 -11.431,2.8451 -15.368,-0.1808 2.6124,-5.8935 13.805,-9.3696 20.249,-23.142 -6.2844,0.60938 -12.95,1.3711 -14.283,0 2.9223,-11.889 7.9275,-18.57 12.836,-25.492 -13.45,-0.19973 -33.828,0.05235 -32.905,-1.0848 l 8.3165,-8.4973 c -13.138,-3.5372 -26.581,0.56816 -36.34,3.6159 -4.3819,-3.4577 0.0776,-7.83 5.4238,-12.294 -11.165,1.4906 -21.254,4.0574 -30.373,7.5934 -4.8724,-4.3993 3.1639,-8.7987 7.051,-13.198 -17.249,3.2726 -24.557,7.8707 -31.82,12.475 -5.2694,-5.0508 -0.30166,-9.3433 3.2543,-13.74 -13.006,4.817 -19.705,11.036 -26.758,17.175 -2.3912,-3.2271 -6.0749,-5.5924 -1.6272,-13.379 -9.2342,5.3227 -16.189,11.595 -21.334,18.622 -5.7134,-3.6379 -3.4039,-8.613 -3.4351,-13.198 -9.5966,7.8065 -15.687,16.114 -23.142,24.226 -1.5017,-1.0934 -2.8166,-4.8017 -3.9775,-10.667 -22.895,22.212 -55.246,78.158 -8.3165,100.34 39.919,-32.947 87.616,-56.888 140.48,-74.849 z"
         inkscape:connector-curvature="0"
         style="fill:#75a928" />
      <path
         id="path8486"
         transform="matrix(1.131107,0,0,1.1280497,-43.139135,-68.310983)"
         d="m 365.2,521.85 a 71.956,66.532 0 1 1 -143.91,0 71.956,66.532 0 1 1 143.91,0 z"
         inkscape:connector-curvature="0"
         style="fill:#bc1142" />
      <path
         id="path8488"
         transform="matrix(0.76741684,-1.1613112,2.171115,1.4224368,-560.88858,217.68859)"
         d="m 262.84,276.65 a 61.875,28.125 0 1 1 -123.75,0 61.875,28.125 0 1 1 123.75,0 z"
         inkscape:connector-curvature="0"
         style="fill:#bc1142" />
      <path
         id="path8490"
         transform="matrix(-0.76741684,-1.1613112,-2.171115,1.4224368,1134.8288,213.68859)"
         d="m 262.84,276.65 a 61.875,28.125 0 1 1 -123.75,0 61.875,28.125 0 1 1 123.75,0 z"
         inkscape:connector-curvature="0"
         style="fill:#bc1142" />
      <path
         id="path8492"
         d="M 72.91,342.09 C 109.32,332.33 85.202,492.72 55.577,479.56 22.99,453.35 12.494,376.59 72.91,342.09 Z"
         inkscape:connector-curvature="0"
         style="fill:#bc1142" />
      <path
         id="path8494"
         d="M 493.68,340.09 C 457.266,330.3331 481.388,490.73 511.013,477.57 543.6,451.357 554.096,374.59 493.68,340.09 Z"
         inkscape:connector-curvature="0"
         style="fill:#bc1142" />
      <path
         id="path8496"
         d="m 369.97,220.65 c 62.835,-10.61 115.12,26.722 113.01,94.858 -2.0669,26.121 -136.16,-90.969 -113.01,-94.858 z"
         inkscape:connector-curvature="0"
         style="fill:#bc1142" />
      <path
         id="path8498"
         d="M 196.36,218.65 C 133.52,208.04 81.24,245.38 83.35,313.51 85.417,339.63 219.51,222.54 196.36,218.65 Z"
         inkscape:connector-curvature="0"
         style="fill:#bc1142" />
      <path
         id="path8500"
         d="m 286.62,202.76 c -37.503,-0.97548 -73.495,27.834 -73.582,44.544 -0.10462,20.304 29.651,41.093 73.837,41.62 45.123,0.32321 73.916,-16.64 74.061,-37.594 0.16484,-23.74 -41.039,-48.937 -74.317,-48.571 z"
         inkscape:connector-curvature="0"
         style="fill:#bc1142" />
      <path
         id="path8502"
         d="m 288.91,619.12 c 32.697,-1.4271 76.571,10.532 76.657,26.396 0.5427,15.405 -39.79,50.211 -78.826,49.538 -40.427,1.7439 -80.069,-33.116 -79.55,-45.199 -0.60506,-17.716 49.226,-31.548 81.719,-30.735 z"
         inkscape:connector-curvature="0"
         style="fill:#bc1142" />
      <path
         id="path8504"
         d="m 168.14,525.1 c 23.279,28.046 33.891,77.319 14.464,91.844 -18.379,11.088 -63.012,6.5216 -94.736,-39.052 -21.395,-38.242 -18.638,-77.157 -3.6159,-88.589 22.464,-13.684 57.173,4.799 83.889,35.797 z"
         inkscape:connector-curvature="0"
         style="fill:#bc1142" />
      <path
         id="path8506"
         d="m 405.02,516.21 c -25.187,29.502 -39.212,83.31 -20.838,100.64 17.568,13.464 64.729,11.582 99.566,-36.756 25.296,-32.465 16.82,-86.682 2.3708,-101.08 -21.464,-16.602 -52.277,4.6449 -81.099,37.188 z"
         inkscape:connector-curvature="0"
         style="fill:#bc1142" />
    </g>
    <g
       transform="matrix(0.33072917,0,0,-0.33072917,112.63615,88.843126)"
       inkscape:label="ink_ext_XXXXXX"
       id="g2993">
      <g
         transform="matrix(1.5512433,0,0,1.5512433,-16.326028,-27.718348)"
         id="g2998">
        <path
           inkscape:connector-curvature="0"
           id="path3005"
           style="fill:#0f80cc;fill-opacity:1;fill-rule:nonzero;stroke:none"
           d="m 103.096,71.5961 c -0.057,0.7219 -0.091,1.191 -0.091,1.191 0,0 -2.189,14.7578 -4.7948,19.1617 -0.4122,0.6981 0.0449,3.5653 1.1953,7.8121 0.6725,-1.1629 3.5115,-6.1371 4.0815,-7.7398 0.642,-1.8121 0.777,-2.3313 0.777,-2.3313 0,0 -1.557,8.0114 -4.112,12.6862 0.56,1.89 1.229,3.979 1.986,6.212 0.968,-1.698 3.285,-5.809 3.795,-7.235 0.103,-0.293 0.19,-0.542 0.268,-0.77 0.025,0.137 0.05,0.274 0.075,0.411 -0.585,2.482 -1.734,6.801 -3.307,9.992 3.49,18.165 15.393,42.445 27.596,53.278 H 50.9602 c -5.3352,0 -9.7004,-4.366 -9.7004,-9.701 V 66.7738 c 0,-5.3347 4.3652,-9.7 9.7004,-9.7 H 103.39 c -0.378,4.5762 -0.504,9.6391 -0.294,14.5223" />
        <path
           inkscape:connector-curvature="0"
           id="path3035"
           style="fill:url(#linearGradient5421);fill-opacity:1;fill-rule:nonzero;stroke:none"
           d="m 99.4055,99.7609 c 0.6725,-1.1629 3.5115,-6.1371 4.0815,-7.7398 0.642,-1.8121 0.777,-2.3313 0.777,-2.3313 0,0 -1.557,8.0114 -4.112,12.6862 0.56,1.89 1.229,3.979 1.986,6.212 0.885,-1.553 2.896,-5.12 3.623,-6.81 0.027,0.319 0.054,0.638 0.082,0.954 -0.644,2.475 -1.622,5.715 -2.874,8.254 3.214,16.725 13.559,38.625 24.704,50.448 H 50.9602 c -3.7883,0 -6.8711,-3.082 -6.8711,-6.871 V 73.1789 c 17.3738,6.668 38.323,12.7633 56.3529,12.502 -0.6693,2.5812 -1.4315,4.9152 -2.2318,6.2679 -0.4122,0.6981 0.0449,3.5653 1.1953,7.8121" />
        <path
           inkscape:connector-curvature="0"
           id="path3045"
           style="fill:#003b57;fill-opacity:1;fill-rule:nonzero;stroke:none"
           d="m 149.133,167.137 c -5.452,4.862 -12.053,2.909 -18.568,-2.873 -0.967,-0.859 -1.932,-1.812 -2.892,-2.83 -11.145,-11.823 -21.49,-33.723 -24.704,-50.448 1.252,-2.539 2.23,-5.779 2.874,-8.254 0.165,-0.635 0.314,-1.231 0.433,-1.738 0.283,-1.1999 0.435,-1.978 0.435,-1.978 0,0 -0.1,0.3781 -0.51,1.567 -0.078,0.228 -0.165,0.477 -0.268,0.77 -0.044,0.121 -0.105,0.268 -0.172,0.425 -0.727,1.69 -2.738,5.257 -3.623,6.81 -0.757,-2.233 -1.426,-4.322 -1.986,-6.212 2.555,-4.6748 4.112,-12.6862 4.112,-12.6862 0,0 -0.135,0.5192 -0.777,2.3313 -0.57,1.6027 -3.409,6.5769 -4.0815,7.7398 -1.1504,-4.2468 -1.6075,-7.114 -1.1953,-7.8121 0.8003,-1.3527 1.5625,-3.6867 2.2318,-6.2679 1.512,-5.8149 2.563,-12.8938 2.563,-12.8938 0,0 0.034,-0.4691 0.091,-1.191 -0.21,-4.8832 -0.084,-9.9461 0.294,-14.5223 0.501,-6.0578 1.444,-11.2617 2.646,-14.0468 l 0.816,0.4449 c -1.765,5.4871 -2.482,12.6781 -2.168,20.9711 0.475,12.6761 3.392,27.9629 8.782,43.896 9.106,24.052 21.74,43.35 33.303,52.566 -10.539,-9.518 -24.803,-40.327 -29.073,-51.736 -4.781,-12.776 -8.169,-24.7651 -10.211,-36.2518 3.523,10.7687 14.914,15.3976 14.914,15.3976 0,0 5.587,6.8903 12.116,16.7342 -3.911,-0.892 -10.333,-2.419 -12.484,-3.323 -3.173,-1.331 -4.028,-1.785 -4.028,-1.785 0,0 10.278,6.259 19.096,9.093 12.127,19.1 25.339,46.234 12.034,58.103" />
      </g>
    </g>
    <g
       id="g8733"
       transform="matrix(0.26458333,0,0,0.26458333,81.260974,-36.609701)">
      <g
         id="g9012"
         transform="matrix(2.7254018,0,0,2.7254018,-185.3663,-1413.5404)">
        <path
           inkscape:connector-curvature="0"
           style="color:#000000;font-weight:400;line-height:normal;font-family:sans-serif;font-variant-ligatures:normal;font-variant-position:normal;font-variant-caps:normal;font-variant-numeric:normal;font-variant-alternates:normal;font-feature-settings:normal;text-indent:0;text-align:start;text-decoration:none;text-decoration-line:none;text-decoration-style:solid;text-decoration-color:#000000;text-transform:none;text-orientation:mixed;white-space:normal;shape-padding:0;overflow:visible;isolation:auto;mix-blend-mode:normal;solid-color:#000000;solid-opacity:1;fill:#201a26"
           d="m -12,917.61 v 26 h 10 v -4 h -6 v -18 h 6 v -4 z m 76,0 v 4 h 6 v 18 h -6 v 4 h 10 v -26 z"
           font-weight="400"
           overflow="visible"
           id="path8725" />
        <path
           inkscape:connector-curvature="0"
           d="m 101.498,932.536 q -4.5,-0.96 -4.5,-3.878 0,-1.079 0.609,-1.981 0.621,-0.902 1.781,-1.441 1.16,-0.54 2.707,-0.54 1.63,0 2.848,0.528 1.219,0.516 1.875,1.453 0.656,0.926 0.656,2.121 h -3.539 q 0,-0.762 -0.457,-1.183 -0.457,-0.434 -1.394,-0.434 -0.774,0 -1.243,0.363 -0.457,0.364 -0.457,0.938 0,0.55 0.516,0.89 0.527,0.34 1.781,0.575 1.5,0.28 2.543,0.738 1.043,0.445 1.653,1.242 0.62,0.797 0.62,2.027 0,1.114 -0.667,2.004 -0.657,0.88 -1.887,1.383 -1.219,0.504 -2.836,0.504 -1.711,0 -2.965,-0.621 -1.242,-0.633 -1.898,-1.617 -0.645,-0.985 -0.645,-2.051 h 3.34 q 0.036,0.914 0.656,1.36 0.621,0.433 1.594,0.433 0.902,0 1.383,-0.34 0.492,-0.351 0.492,-0.937 0,-0.364 -0.223,-0.61 -0.21,-0.258 -0.773,-0.48 -0.55,-0.223 -1.57,-0.446 z m 19.384,-7.606 -5.086,14.58 q -0.293,0.831 -0.726,1.523 -0.434,0.703 -1.266,1.195 -0.832,0.504 -2.098,0.504 -0.457,0 -0.75,-0.048 -0.281,-0.046 -0.785,-0.176 v -2.672 q 0.176,0.02 0.527,0.02 0.95,0 1.418,-0.293 0.47,-0.293 0.715,-0.961 l 0.352,-0.926 -4.43,-12.738 h 3.797 l 2.262,7.687 2.285,-7.687 z m 5.884,7.606 q -4.5,-0.96 -4.5,-3.878 0,-1.079 0.61,-1.981 0.62,-0.902 1.781,-1.441 1.16,-0.54 2.707,-0.54 1.629,0 2.848,0.528 1.218,0.516 1.875,1.453 0.656,0.926 0.656,2.121 h -3.539 q 0,-0.762 -0.457,-1.183 -0.457,-0.434 -1.395,-0.434 -0.773,0 -1.242,0.363 -0.457,0.364 -0.457,0.938 0,0.55 0.516,0.89 0.527,0.34 1.781,0.575 1.5,0.28 2.543,0.738 1.043,0.445 1.652,1.242 0.621,0.797 0.621,2.027 0,1.114 -0.668,2.004 -0.656,0.88 -1.886,1.383 -1.219,0.504 -2.836,0.504 -1.711,0 -2.965,-0.621 -1.242,-0.633 -1.899,-1.617 -0.644,-0.985 -0.644,-2.051 h 3.34 q 0.036,0.914 0.656,1.36 0.621,0.433 1.594,0.433 0.902,0 1.383,-0.34 0.492,-0.351 0.492,-0.937 0,-0.364 -0.223,-0.61 -0.21,-0.258 -0.773,-0.48 -0.551,-0.223 -1.57,-0.446 z m 13.983,2.403 q 0.574,0 0.984,-0.082 v 2.66 q -0.914,0.328 -2.086,0.328 -3.727,0 -3.727,-3.797 v -6.539 h -1.793 v -2.578 h 1.793 v -3.14 h 3.54 v 3.14 h 2.132 v 2.578 h -2.133 v 6.129 q 0,0.75 0.293,1.031 0.293,0.27 0.997,0.27 z m 14.228,-2.519 h -8.016 q 0.2,1.183 0.985,1.886 0.785,0.691 2.015,0.691 0.914,0 1.688,-0.34 0.785,-0.351 1.336,-1.042 l 1.699,1.957 q -0.668,0.96 -1.957,1.617 -1.278,0.656 -3,0.656 -1.946,0 -3.387,-0.82 -1.43,-0.82 -2.203,-2.227 -0.762,-1.406 -0.762,-3.105 v -0.446 q 0,-1.898 0.715,-3.386 0.715,-1.489 2.063,-2.32 1.347,-0.844 3.187,-0.844 1.793,0 3.059,0.761 1.265,0.762 1.922,2.168 0.656,1.395 0.656,3.293 z m -3.469,-2.65 q -0.024,-1.03 -0.574,-1.628 -0.54,-0.598 -1.617,-0.598 -1.008,0 -1.582,0.668 -0.563,0.668 -0.739,1.84 h 4.512 z m 19.923,-5.073 q 1.934,0 2.989,1.148 1.054,1.148 1.054,3.727 v 8.039 h -3.539 v -8.051 q 0,-0.797 -0.21,-1.23 -0.212,-0.446 -0.61,-0.61 -0.387,-0.164 -0.984,-0.164 -0.715,0 -1.219,0.352 -0.504,0.34 -0.797,0.972 0.02,0.082 0.02,0.27 v 8.46 h -3.54 v -8.015 q 0,-0.797 -0.21,-1.242 -0.211,-0.445 -0.61,-0.621 -0.386,-0.176 -0.996,-0.176 -0.68,0 -1.183,0.304 -0.492,0.293 -0.797,0.844 v 8.906 h -3.539 v -12.68 h 3.316 l 0.118,1.419 q 0.633,-0.797 1.547,-1.22 0.926,-0.433 2.086,-0.433 1.172,0 2.016,0.48 0.855,0.47 1.312,1.442 0.633,-0.926 1.582,-1.418 0.961,-0.504 2.203,-0.504 z m 17.967,-5.087 v 18 h -3.187 l -0.176,-1.359 q -1.243,1.594 -3.212,1.594 -1.535,0 -2.66,-0.82 -1.113,-0.832 -1.699,-2.285 -0.574,-1.454 -0.574,-3.317 v -0.246 q 0,-1.934 0.574,-3.398 0.586,-1.465 1.7,-2.274 1.124,-0.808 2.683,-0.808 1.805,0 3.012,1.37 v -6.456 z m -5.672,15.376 q 1.488,0 2.133,-1.266 v -4.898 q -0.61,-1.266 -2.11,-1.266 -1.207,0 -1.77,0.984 -0.55,0.985 -0.55,2.637 v 0.246 q 0,1.629 0.54,2.602 0.55,0.96 1.757,0.96 z"
           style="font-weight:700;font-size:12px;line-height:1.25;font-family:Heebo;-inkscape-font-specification:'Heebo Bold';text-align:start;letter-spacing:0.2;word-spacing:0;fill:#201a26"
           font-weight="700"
           font-size="12"
           letter-spacing=".2"
           word-spacing="0"
           id="path8727" />
        <path
           style="fill:#30d475"
           inkscape:connector-curvature="0"
           d="m 33,930.61 18,-10 v 20 z"
           id="path8729" />
        <circle
           style="fill:#30d475"
           r="9"
           cy="930.61102"
           cx="18.000999"
           id="circle8731" />
      </g>
    </g>
    <g
       id="g8957"
       transform="matrix(0.31509457,0,0,0.31509457,18.341508,176.48701)">
	<path
   id="path8907"
   d="M 105.9,66.3 68.7,44.2 c -2.2,-1.3 -4.7,-2 -7.2,-2 -2.5,0 -5,0.7 -7.2,2 L 17.1,66.3 c -4.4,2.6 -7.2,7.5 -7.2,12.8 v 44.2 c 0,5.3 2.7,10.1 7.2,12.8 l 37.2,22.1 c 2.2,1.3 4.7,2 7.2,2 2.5,0 5,-0.7 7.2,-2 l 37.2,-22.1 c 4.4,-2.6 7.2,-7.5 7.2,-12.8 V 79 c 0,-5.2 -2.7,-10.1 -7.2,-12.7 z m -28.8,69 0.1,3.2 c 0,0.4 -0.2,0.8 -0.5,1 l -1.9,1.1 c -0.3,0.2 -0.5,0 -0.6,-0.4 v -3.1 c -1.6,0.7 -3.2,0.8 -4.3,0.4 -0.2,-0.1 -0.3,-0.4 -0.2,-0.7 l 0.7,-2.9 c 0.1,-0.2 0.2,-0.5 0.3,-0.6 0.1,-0.1 0.1,-0.1 0.2,-0.1 0.1,-0.1 0.2,-0.1 0.3,0 1.1,0.4 2.6,0.2 3.9,-0.5 1.8,-0.9 2.9,-2.7 2.9,-4.5 0,-1.6 -0.9,-2.3 -3,-2.3 -2.7,0 -5.2,-0.5 -5.3,-4.5 0,-3.3 1.7,-6.7 4.4,-8.8 v -3.2 c 0,-0.4 0.2,-0.8 0.5,-1 l 1.8,-1.2 c 0.3,-0.2 0.5,0 0.6,0.4 v 3.2 c 1.3,-0.5 2.5,-0.7 3.6,-0.4 0.2,0.1 0.3,0.4 0.2,0.7 l -0.7,2.8 c -0.1,0.2 -0.2,0.4 -0.3,0.6 -0.1,0.1 -0.1,0.1 -0.2,0.1 -0.1,0 -0.2,0.1 -0.3,0 -0.5,-0.1 -1.6,-0.4 -3.4,0.6 -1.9,1 -2.6,2.6 -2.5,3.8 0,1.5 0.8,1.9 3.3,1.9 3.4,0.1 4.9,1.6 5,5 0,3.5 -1.8,7.1 -4.6,9.4 z m 19.5,-5.4 c 0,0.3 0,0.6 -0.3,0.7 l -9.4,5.7 c -0.2,0.1 -0.4,0 -0.4,-0.3 v -2.4 c 0,-0.3 0.2,-0.5 0.4,-0.6 l 9.3,-5.5 c 0.2,-0.1 0.4,0 0.4,0.3 z m 6.5,-54.3 -35.2,21.7 c -4.4,2.6 -7.6,5.4 -7.6,10.7 v 43.4 c 0,3.2 1.3,5.2 3.2,5.8 -0.6,0.1 -1.3,0.2 -2,0.2 -2.1,0 -4.1,-0.6 -5.9,-1.6 L 18.4,133.7 c -3.6,-2.2 -5.9,-6.2 -5.9,-10.5 V 79 c 0,-4.3 2.3,-8.4 5.9,-10.5 L 55.6,46.4 c 1.8,-1.1 3.8,-1.6 5.9,-1.6 2.1,0 4.1,0.6 5.9,1.6 l 37.2,22.1 c 3.1,1.8 5.1,5 5.7,8.5 -1.2,-2.6 -4,-3.3 -7.2,-1.4 z"
   class="st0"
   inkscape:connector-curvature="0"
   style="fill:#2a3238" />

	<path
   id="path8909"
   d="m 161.2,102.8 c -0.9,-1.1 -2,-2.1 -3.3,-2.9 -0.2,-0.1 -0.3,-0.2 -0.5,-0.3 1,-0.7 1.9,-1.5 2.7,-2.4 0.8,-1 1.5,-2.1 2,-3.3 0.5,-1.2 0.7,-2.6 0.8,-4 0,-2.5 -0.5,-4.7 -1.6,-6.6 -1.1,-1.8 -2.5,-3.4 -4.3,-4.5 -1.7,-1.1 -3.7,-2 -5.9,-2.5 -2.1,-0.5 -4.3,-0.8 -6.5,-0.8 h -14.9 c -1,0 -1.9,0.8 -1.9,1.8 v 47.6 c 0,1 0.8,1.8 1.9,1.8 h 16.1 c 2.3,0 4.6,-0.4 6.8,-1 2.2,-0.7 4.2,-1.7 5.9,-2.9 1.7,-1.3 3.2,-2.9 4.2,-4.9 1.1,-2 1.6,-4.2 1.5,-6.7 0,-1.6 -0.3,-3.1 -0.8,-4.5 -0.5,-1.5 -1.2,-2.7 -2.2,-3.9 z M 138,84.3 h 6.8 c 1.1,0 2.2,0.2 3.2,0.4 1,0.2 1.8,0.6 2.5,1.1 0.7,0.4 1.2,1 1.6,1.7 0.4,0.7 0.6,1.5 0.6,2.5 0,0.9 -0.2,1.7 -0.6,2.4 -0.4,0.7 -1,1.3 -1.7,1.8 -0.7,0.5 -1.6,0.9 -2.5,1.2 -1,0.3 -2,0.4 -3,0.5 h -7 V 84.3 Z m 15.4,29.7 c -0.4,0.8 -1,1.5 -1.7,2.1 -0.7,0.6 -1.6,1 -2.6,1.4 -1,0.3 -2.1,0.5 -3.2,0.5 H 138 v -13.6 h 8.2 c 1.2,0 2.2,0.2 3.2,0.6 0.9,0.3 1.8,0.8 2.4,1.3 0.7,0.6 1.2,1.2 1.6,2.1 0.4,0.8 0.6,1.8 0.5,2.9 0.1,1 -0.1,1.9 -0.5,2.7 z"
   class="st0"
   inkscape:connector-curvature="0"
   style="fill:#2a3238" />

	<path
   id="path8911"
   d="m 192.2,76.8 c -0.2,-0.7 -1,-1.2 -1.8,-1.2 h -5.3 c -0.8,0 -1.5,0.5 -1.8,1.2 l -16.2,47.6 c -0.2,0.5 -0.1,1.1 0.3,1.6 0.4,0.5 0.9,0.7 1.5,0.7 h 6.4 c 0.8,0 1.6,-0.5 1.8,-1.3 l 3.6,-11.1 h 13.9 l 3.6,11.1 c 0.2,0.8 1,1.3 1.8,1.3 h 6.3 c 0.6,0 1.2,-0.3 1.5,-0.7 0.4,-0.5 0.5,-1.1 0.3,-1.6 z m -8.7,28.7 4.1,-12.8 4.1,12.8 z"
   class="st0"
   inkscape:connector-curvature="0"
   style="fill:#2a3238" />

	<path
   id="path8913"
   d="m 246.3,104.7 c -0.9,-1.1 -1.9,-2.1 -3,-2.9 -1.1,-0.8 -2.3,-1.6 -3.5,-2.2 -1.2,-0.6 -2.5,-1.2 -3.9,-1.7 -1.3,-0.5 -2.6,-0.9 -3.9,-1.3 -1.1,-0.3 -2.3,-0.7 -3.5,-1.1 -1.1,-0.4 -2.2,-0.9 -3.2,-1.5 -0.9,-0.5 -1.6,-1.2 -2.2,-1.9 -0.5,-0.7 -0.7,-1.5 -0.8,-2.4 0,-1 0.2,-1.8 0.6,-2.5 0.4,-0.7 1,-1.3 1.6,-1.8 0.7,-0.5 1.6,-0.9 2.5,-1.2 2.2,-0.6 4.6,-0.5 6.4,0.1 1,0.4 1.8,0.9 2.5,1.5 0.7,0.6 1.3,1.4 1.7,2.3 0.4,1 0.8,2 0.9,3.2 0.1,0.9 0.9,1.6 1.9,1.6 h 6.5 c 0.5,0 1,-0.2 1.3,-0.5 0.4,-0.3 0.5,-0.8 0.5,-1.3 -0.1,-2.4 -0.6,-4.7 -1.7,-6.7 -1.1,-2 -2.5,-3.7 -4.2,-5.1 -1.7,-1.4 -3.7,-2.5 -5.9,-3.2 -4.2,-1.4 -8.9,-1.5 -13.4,-0.2 -2.2,0.6 -4.1,1.6 -5.8,2.8 -1.7,1.3 -3.2,2.8 -4.2,4.6 -1.1,1.9 -1.7,4 -1.7,6.4 0,2.4 0.6,4.5 1.7,6.3 1.1,1.7 2.5,3.2 4.1,4.4 1.6,1.2 3.4,2.2 5.4,3 1.9,0.8 3.7,1.5 5.6,2 1.2,0.4 2.4,0.8 3.7,1.2 1.2,0.4 2.3,0.9 3.2,1.5 0.9,0.6 1.6,1.2 2.2,2 0.5,0.7 0.7,1.6 0.7,2.7 0,1 -0.2,1.8 -0.6,2.5 -0.5,0.7 -1,1.3 -1.8,1.8 -0.8,0.5 -1.6,0.9 -2.6,1.1 -2.4,0.6 -4.9,0.5 -6.9,-0.1 -1.1,-0.3 -2,-0.8 -2.9,-1.5 -0.8,-0.6 -1.5,-1.4 -2,-2.4 -0.5,-0.9 -0.9,-2.1 -1.1,-3.3 -0.1,-0.9 -0.9,-1.6 -1.9,-1.6 h -6.5 c -0.5,0 -1,0.2 -1.4,0.5 -0.4,0.3 -0.5,0.8 -0.5,1.3 0.1,2.6 0.7,4.9 1.9,6.9 1.2,2 2.7,3.7 4.6,5.1 1.8,1.4 4,2.4 6.3,3.1 2.3,0.7 4.7,1.1 7.1,1.1 2.2,0 4.3,-0.3 6.5,-0.9 2.2,-0.6 4.2,-1.5 5.9,-2.6 1.8,-1.2 3.3,-2.7 4.4,-4.5 1.2,-1.9 1.8,-4.1 1.8,-6.5 0,-1.6 -0.2,-3.1 -0.7,-4.5 -0.1,-1.3 -0.8,-2.5 -1.7,-3.6 z"
   class="st0"
   inkscape:connector-curvature="0"
   style="fill:#2a3238" />

	<path
   id="path8915"
   d="m 288.1,75.5 h -6 c -1,0 -1.9,0.8 -1.9,1.8 V 96 H 263.4 V 77.3 c 0,-1 -0.8,-1.8 -1.9,-1.8 h -6 c -1,0 -1.9,0.8 -1.9,1.8 v 47.6 c 0,1 0.8,1.8 1.9,1.8 h 6 c 1,0 1.9,-0.8 1.9,-1.8 v -20.2 h 16.8 v 20.2 c 0,1 0.8,1.8 1.9,1.8 h 6 c 1,0 1.9,-0.8 1.9,-1.8 V 77.3 c -0.1,-1 -0.9,-1.8 -1.9,-1.8 z"
   class="st0"
   inkscape:connector-curvature="0"
   style="fill:#2a3238" />

	<polygon
   id="polygon8917"
   points="130.1,141.1 131.3,141.1 131.3,135 133.6,135 133.6,134 127.8,134 127.8,135 130.1,135 "
   class="st0"
   style="fill:#2a3238" />

	<polygon
   id="polygon8919"
   points="140.6,134 139.4,134 139.4,137 136.9,137 136.9,134 135.7,134 135.7,141.1 136.9,141.1 136.9,137.9 139.4,137.9 139.4,141.1 140.6,141.1 "
   class="st0"
   style="fill:#2a3238" />

	<polygon
   id="polygon8921"
   points="148.1,140.1 144.6,140.1 144.6,137.9 147.6,137.9 147.6,137 144.6,137 144.6,135 148.1,135 148.1,134 143.3,134 143.3,141.1 148.1,141.1 "
   class="st0"
   style="fill:#2a3238" />

	<path
   id="path8923"
   d="m 163,138 c -0.1,-0.1 -0.2,-0.3 -0.4,-0.4 -0.2,-0.1 -0.3,-0.2 -0.6,-0.2 0.3,-0.1 0.6,-0.3 0.8,-0.6 0.2,-0.2 0.3,-0.5 0.3,-0.9 0,-0.3 -0.1,-0.6 -0.2,-0.9 -0.1,-0.2 -0.3,-0.4 -0.5,-0.6 -0.2,-0.2 -0.5,-0.3 -0.8,-0.3 -0.3,-0.1 -0.6,-0.1 -1,-0.1 h -2.4 v 7.1 h 2.5 c 0.4,0 0.7,0 1,-0.1 0.3,-0.1 0.6,-0.2 0.8,-0.4 0.2,-0.2 0.4,-0.4 0.5,-0.6 0.1,-0.3 0.2,-0.6 0.2,-0.9 0,-0.2 0,-0.4 -0.1,-0.6 0.1,-0.2 0,-0.4 -0.1,-0.5 z m -3.6,-3 h 1.2 c 0.2,0 0.4,0 0.5,0.1 0.2,0 0.3,0.1 0.4,0.2 0.1,0.1 0.2,0.2 0.3,0.3 0.1,0.1 0.1,0.3 0.1,0.5 0,0.2 0,0.3 -0.1,0.4 -0.1,0.1 -0.2,0.2 -0.3,0.3 -0.1,0.1 -0.3,0.2 -0.4,0.2 -0.1,0 -0.3,0.1 -0.5,0.1 h -1.2 z m 2.6,4.5 c -0.1,0.1 -0.2,0.3 -0.3,0.3 -0.1,0.1 -0.3,0.2 -0.4,0.2 -0.2,0.1 -0.3,0.1 -0.5,0.1 h -1.3 v -2.2 h 1.4 c 0.2,0 0.4,0 0.5,0.1 0.2,0.1 0.3,0.1 0.4,0.2 0.1,0.1 0.2,0.2 0.2,0.4 0.1,0.1 0.1,0.3 0.1,0.5 0,0.1 -0.1,0.2 -0.1,0.4 z"
   class="st0"
   inkscape:connector-curvature="0"
   style="fill:#2a3238" />

	<path
   id="path8925"
   d="m 170,134.9 c -0.2,-0.3 -0.5,-0.5 -0.8,-0.7 -0.3,-0.2 -0.7,-0.3 -1.2,-0.3 -0.3,0 -0.6,0 -0.8,0.1 -0.2,0.1 -0.5,0.2 -0.7,0.3 -0.2,0.1 -0.4,0.3 -0.5,0.5 -0.1,0.2 -0.3,0.4 -0.4,0.6 -0.1,0.2 -0.2,0.5 -0.2,0.7 0,0.3 -0.1,0.5 -0.1,0.8 v 0.9 c 0,0.4 0.1,0.8 0.2,1.2 0.1,0.4 0.3,0.7 0.5,1 0.2,0.3 0.5,0.5 0.8,0.7 0.3,0.2 0.7,0.3 1.2,0.3 0.4,0 0.8,-0.1 1.2,-0.3 0.3,-0.2 0.6,-0.4 0.8,-0.7 0.2,-0.3 0.4,-0.6 0.5,-1 0.1,-0.4 0.2,-0.8 0.2,-1.2 v -0.9 c 0,-0.4 -0.1,-0.8 -0.2,-1.2 -0.1,-0.2 -0.3,-0.5 -0.5,-0.8 z m -0.5,3.1 c 0,0.3 0,0.5 -0.1,0.8 -0.1,0.3 -0.1,0.5 -0.2,0.7 -0.1,0.2 -0.3,0.4 -0.4,0.5 -0.2,0.1 -0.4,0.2 -0.7,0.2 -0.3,0 -0.5,-0.1 -0.7,-0.2 -0.2,-0.1 -0.3,-0.3 -0.4,-0.5 -0.1,-0.2 -0.2,-0.4 -0.2,-0.7 0,-0.3 -0.1,-0.5 -0.1,-0.8 v -0.9 c 0,-0.3 0,-0.5 0.1,-0.8 0,-0.3 0.1,-0.5 0.2,-0.7 0.1,-0.2 0.3,-0.4 0.4,-0.5 0.2,-0.1 0.4,-0.2 0.7,-0.2 0.3,0 0.5,0.1 0.7,0.2 0.2,0.1 0.3,0.3 0.4,0.5 0.1,0.2 0.2,0.4 0.2,0.7 0,0.3 0.1,0.5 0.1,0.8 z"
   class="st0"
   inkscape:connector-curvature="0"
   style="fill:#2a3238" />

	<path
   id="path8927"
   d="m 176.7,134 v 4.7 c 0,0.2 0,0.4 -0.1,0.6 -0.1,0.2 -0.1,0.3 -0.2,0.5 -0.1,0.1 -0.2,0.2 -0.4,0.3 -0.2,0.1 -0.3,0.1 -0.5,0.1 -0.2,0 -0.4,0 -0.5,-0.1 -0.2,-0.1 -0.3,-0.2 -0.4,-0.3 -0.1,-0.1 -0.2,-0.3 -0.2,-0.5 -0.1,-0.2 -0.1,-0.4 -0.1,-0.6 V 134 H 173 v 4.7 c 0,0.4 0.1,0.7 0.2,1 0.1,0.3 0.3,0.6 0.5,0.8 0.2,0.2 0.5,0.4 0.8,0.5 0.3,0.1 0.6,0.2 1,0.2 0.4,0 0.7,-0.1 1,-0.2 0.3,-0.1 0.6,-0.3 0.8,-0.5 0.2,-0.2 0.4,-0.5 0.5,-0.8 0.1,-0.3 0.2,-0.6 0.2,-1 V 134 Z"
   class="st0"
   inkscape:connector-curvature="0"
   style="fill:#2a3238" />

	<path
   id="path8929"
   d="m 184.8,137.8 c 0.2,-0.1 0.3,-0.3 0.4,-0.4 0.1,-0.2 0.2,-0.3 0.3,-0.5 0.1,-0.2 0.1,-0.4 0.1,-0.7 0,-0.4 -0.1,-0.7 -0.2,-0.9 -0.1,-0.3 -0.3,-0.5 -0.5,-0.7 -0.2,-0.2 -0.5,-0.3 -0.8,-0.4 -0.3,-0.1 -0.7,-0.1 -1.1,-0.1 h -2.3 v 7.1 h 1.2 v -2.8 h 1.2 l 1.4,2.8 h 1.3 V 141 l -1.6,-3 c 0.2,0 0.4,-0.1 0.6,-0.2 z m -1.3,-0.5 c -0.2,0.1 -0.4,0.1 -0.6,0.1 h -1.1 V 135 h 1.1 c 0.2,0 0.4,0 0.6,0.1 0.2,0.1 0.3,0.1 0.4,0.2 0.1,0.1 0.2,0.2 0.3,0.4 0.1,0.2 0.1,0.3 0.1,0.5 0,0.2 0,0.4 -0.1,0.5 -0.1,0.1 -0.2,0.3 -0.3,0.4 -0.1,0.1 -0.2,0.2 -0.4,0.2 z"
   class="st0"
   inkscape:connector-curvature="0"
   style="fill:#2a3238" />

	<polygon
   id="polygon8931"
   points="191.6,138.9 189.2,134 188,134 188,141.1 189.2,141.1 189.2,136.2 191.6,141.1 192.9,141.1 192.9,134 191.6,134 "
   class="st0"
   style="fill:#2a3238" />

	<polygon
   id="polygon8933"
   points="200.4,140.1 196.8,140.1 196.8,137.9 199.9,137.9 199.9,137 196.8,137 196.8,135 200.3,135 200.3,134 195.6,134 195.6,141.1 200.4,141.1 "
   class="st0"
   style="fill:#2a3238" />

	<rect
   id="rect8935"
   height="0.89999998"
   width="4.0999999"
   class="st0"
   y="137.5"
   x="203.5"
   style="fill:#2a3238" />

	<path
   id="path8937"
   d="m 212.4,134 -2.4,7.1 h 1.3 l 0.5,-1.6 h 2.3 l 0.5,1.6 h 1.3 l -2.4,-7.1 z m -0.4,4.5 0.9,-2.8 0.8,2.8 z"
   class="st0"
   inkscape:connector-curvature="0"
   style="fill:#2a3238" />

	<path
   id="path8939"
   d="m 220.3,137.5 v 0.9 h 1.3 v 1.4 c -0.1,0.1 -0.1,0.1 -0.2,0.2 -0.1,0 -0.2,0.1 -0.3,0.1 -0.1,0 -0.2,0.1 -0.3,0.1 -0.1,0 -0.2,0 -0.4,0 -0.3,0 -0.5,-0.1 -0.7,-0.2 -0.2,-0.1 -0.4,-0.3 -0.5,-0.5 -0.1,-0.2 -0.2,-0.4 -0.3,-0.7 -0.1,-0.3 -0.1,-0.5 -0.1,-0.8 v -0.9 c 0,-0.3 0,-0.6 0.1,-0.8 0.1,-0.3 0.1,-0.5 0.3,-0.7 0.1,-0.2 0.3,-0.4 0.5,-0.5 0.2,-0.1 0.4,-0.2 0.7,-0.2 0.2,0 0.4,0 0.5,0.1 0.1,0.1 0.3,0.1 0.4,0.2 0.1,0.1 0.2,0.2 0.3,0.4 0.1,0.2 0.1,0.3 0.1,0.5 h 1.2 c 0,-0.3 -0.1,-0.6 -0.2,-0.9 -0.1,-0.3 -0.3,-0.5 -0.5,-0.7 -0.2,-0.2 -0.5,-0.3 -0.8,-0.4 -0.3,-0.1 -0.6,-0.2 -1,-0.2 -0.4,0 -0.8,0.1 -1.1,0.3 -0.3,0.2 -0.6,0.4 -0.8,0.7 -0.2,0.3 -0.4,0.6 -0.5,1 -0.1,0.4 -0.2,0.8 -0.2,1.3 v 0.9 c 0,0.4 0.1,0.9 0.2,1.3 0.1,0.4 0.3,0.7 0.5,1 0.2,0.3 0.5,0.5 0.9,0.7 0.3,0.2 0.7,0.2 1.2,0.2 0.3,0 0.5,0 0.8,-0.1 0.2,0 0.5,-0.1 0.7,-0.2 0.2,-0.1 0.4,-0.2 0.6,-0.3 0.2,-0.1 0.3,-0.3 0.4,-0.4 v -2.7 h -2.8 z"
   class="st0"
   inkscape:connector-curvature="0"
   style="fill:#2a3238" />

	<path
   id="path8941"
   d="m 227.3,134 -2.4,7.1 h 1.3 l 0.5,-1.6 h 2.3 l 0.5,1.6 h 1.3 l -2.4,-7.1 z m -0.3,4.5 0.9,-2.8 0.8,2.8 z"
   class="st0"
   inkscape:connector-curvature="0"
   style="fill:#2a3238" />

	<polygon
   id="polygon8943"
   points="237.4,134 233,134 233,135 234.6,135 234.6,140.1 233,140.1 233,141.1 237.4,141.1 237.4,140.1 235.8,140.1 235.8,135 237.4,135 "
   class="st0"
   style="fill:#2a3238" />

	<polygon
   id="polygon8945"
   points="243.8,138.9 241.4,134 240.2,134 240.2,141.1 241.4,141.1 241.4,136.2 243.9,141.1 245.1,141.1 245.1,134 243.9,134 "
   class="st0"
   style="fill:#2a3238" />

	<path
   id="path8947"
   d="m 259.6,137.8 c -0.2,-0.2 -0.5,-0.3 -0.7,-0.5 -0.3,-0.1 -0.6,-0.2 -0.9,-0.3 -0.2,-0.1 -0.4,-0.1 -0.6,-0.2 -0.2,-0.1 -0.3,-0.1 -0.5,-0.2 -0.1,-0.1 -0.3,-0.2 -0.3,-0.3 -0.1,-0.1 -0.1,-0.3 -0.1,-0.4 0,-0.2 0,-0.3 0.1,-0.4 0.1,-0.1 0.2,-0.2 0.3,-0.3 0.1,-0.1 0.2,-0.2 0.4,-0.2 0.2,0 0.3,-0.1 0.5,-0.1 0.2,0 0.4,0 0.6,0.1 0.2,0.1 0.3,0.1 0.4,0.2 0.1,0.1 0.2,0.2 0.3,0.4 0.1,0.1 0.1,0.3 0.1,0.5 h 1.2 c 0,-0.3 -0.1,-0.6 -0.2,-0.9 -0.1,-0.3 -0.3,-0.5 -0.6,-0.7 -0.2,-0.2 -0.5,-0.3 -0.8,-0.4 -0.3,-0.1 -0.6,-0.2 -1,-0.2 -0.3,0 -0.7,0 -1,0.1 -0.3,0.1 -0.6,0.2 -0.8,0.4 -0.2,0.2 -0.4,0.4 -0.6,0.6 -0.1,0.2 -0.2,0.5 -0.2,0.8 0,0.3 0.1,0.6 0.2,0.8 0.1,0.2 0.3,0.4 0.5,0.6 0.2,0.2 0.5,0.3 0.8,0.4 0.3,0.1 0.6,0.2 0.9,0.3 0.2,0.1 0.4,0.1 0.6,0.2 0.2,0.1 0.3,0.2 0.5,0.3 0.1,0.1 0.2,0.2 0.3,0.3 0.1,0.1 0.1,0.3 0.1,0.4 0,0.2 0,0.3 -0.1,0.4 -0.1,0.1 -0.2,0.2 -0.3,0.3 -0.1,0.1 -0.3,0.1 -0.4,0.2 -0.2,0 -0.3,0.1 -0.5,0.1 -0.2,0 -0.4,0 -0.6,-0.1 -0.2,-0.1 -0.3,-0.1 -0.5,-0.2 -0.1,-0.1 -0.2,-0.2 -0.3,-0.4 -0.1,-0.2 -0.1,-0.3 -0.1,-0.6 H 255 c 0,0.2 0,0.5 0.1,0.7 0.1,0.2 0.2,0.4 0.3,0.5 0.1,0.2 0.3,0.3 0.5,0.4 0.2,0.1 0.4,0.2 0.6,0.3 0.2,0.1 0.4,0.1 0.6,0.2 0.2,0 0.5,0.1 0.7,0.1 0.3,0 0.7,0 1,-0.1 0.3,-0.1 0.6,-0.2 0.8,-0.4 0.2,-0.2 0.4,-0.4 0.6,-0.6 0.1,-0.2 0.2,-0.5 0.2,-0.8 0,-0.3 -0.1,-0.6 -0.2,-0.8 -0.2,-0.1 -0.4,-0.3 -0.6,-0.5 z"
   class="st0"
   inkscape:connector-curvature="0"
   style="fill:#2a3238" />

	<polygon
   id="polygon8949"
   points="267.5,134 266.3,134 266.3,137 263.8,137 263.8,134 262.6,134 262.6,141.1 263.8,141.1 263.8,137.9 266.3,137.9 266.3,141.1 267.5,141.1 "
   class="st0"
   style="fill:#2a3238" />

	<polygon
   id="polygon8951"
   points="275,140.1 271.4,140.1 271.4,137.9 274.5,137.9 274.5,137 271.4,137 271.4,135 275,135 275,134 270.2,134 270.2,141.1 275,141.1 "
   class="st0"
   style="fill:#2a3238" />

	<polygon
   id="polygon8953"
   points="282.5,140.1 278.9,140.1 278.9,134 277.7,134 277.7,141.1 282.5,141.1 "
   class="st0"
   style="fill:#2a3238" />

	<polygon
   id="polygon8955"
   points="289.9,140.1 286.4,140.1 286.4,134 285.2,134 285.2,141.1 289.9,141.1 "
   class="st0"
   style="fill:#2a3238" />

</g>
    <path
       id="path8488-8"
       d="m 147.91597,234.3306 c -2.6563,-2.0892 -5.4898,-4.09236 -7.42603,-6.91297 -4.07416,-4.97409 -7.21109,-10.73304 -9.35558,-16.785 -1.29625,-3.93522 -1.74018,-8.15432 -3.41116,-11.93748 -1.74804,-2.74773 0.29968,-5.75149 3.30931,-6.62492 1.34007,-0.25712 3.69625,-1.52114 0.8521,-0.61774 -2.54984,1.87082 -2.79667,-1.69818 -0.18198,-1.92416 1.78443,-0.23714 2.44131,-1.698 1.83108,-3.01301 -1.91542,-1.24913 4.64469,-2.6219 1.3439,-4.48573 -3.43853,-3.70989 4.80982,-4.42406 2.77482,-0.21065 -0.48757,3.23982 5.7637,-0.59381 4.31331,3.14748 1.47419,1.79668 5.52016,0.40914 5.41979,2.92954 2.1474,0.14767 2.88432,1.95438 4.90012,2.0931 2.08924,0.94349 5.87658,1.68697 6.58761,4.04124 -2.07282,1.64098 -6.87244,-3.38957 -7.10307,1.1528 0.62621,6.71013 0.46621,13.62245 2.92172,20.01253 1.16117,3.86924 3.97631,6.91505 6.51855,9.92854 2.43254,2.95138 5.72752,5.02903 9.08586,6.7785 2.946,1.38937 6.12206,2.31088 9.33271,2.88905 1.30217,-0.99604 3.60127,-4.69915 5.63276,-3.13762 0.0967,1.75451 -4.03212,3.66772 -0.19484,3.47379 2.25362,-0.67981 3.81679,1.74287 5.67248,-0.44249 1.70959,2.02518 7.10619,-1.2939 5.88967,2.84558 -1.64492,1.06128 -4.04407,0.41999 -5.69173,1.87994 -2.7166,-1.35684 -4.87936,1.21408 -7.8868,0.88894 -3.33986,0.59824 -6.73769,0.83968 -10.12374,0.84494 -5.55518,-0.43885 -11.22797,-0.62391 -16.51264,-2.55801 -2.97705,-0.8651 -5.88231,-2.56023 -8.49882,-4.25615 z m 4.69156,2.03278 c 2.907,1.25716 5.74949,2.58207 8.93537,2.98174 5.05444,0.703 10.27409,1.78426 15.34655,0.79795 -2.29581,-1.03666 -4.66919,0.40392 -6.95627,-0.74127 -2.74316,0.59025 -5.68677,-0.15028 -8.47554,-0.51502 -3.17124,-1.41252 -6.59352,-2.38385 -9.56314,-4.21741 -3.71072,-1.35536 1.91911,1.73818 2.92124,1.98874 2.31969,1.31667 -2.55098,-0.67498 -3.23752,-1.22232 -1.94292,-1.08986 -2.19053,-0.86214 -0.19241,0.24452 0.40262,0.23541 0.80008,0.48228 1.22168,0.68285 z m -5.53146,-3.90912 c 2.81692,1.04343 -0.013,-1.98092 -1.30328,-1.80519 -0.57192,-0.99218 -2.18502,-1.619 -1.04717,-2.15201 -2.04681,0.71061 -2.14409,-2.7022 -3.10626,-2.21454 -2.16542,-0.68376 -0.84277,-3.106 -3.42215,-4.59344 -0.23497,-1.56736 -2.5627,-2.9268 -3.30501,-5.29093 -0.32792,-1.21043 -2.62933,-4.68639 -1.21555,-1.45148 1.20378,3.11412 3.32177,5.78098 5.08432,8.44484 1.36861,2.53629 2.98465,5.18699 5.47712,6.76916 0.84021,0.80602 1.65136,2.04094 2.83798,2.29359 z m -8.11514,-8.9097 c 0.0982,-0.4252 0.51529,0.92078 0,0 z m 11.48865,10.16048 c 0.62382,-0.27928 -0.89702,-0.35181 0,0 z m 1.52922,0.5578 c -0.15853,-0.77023 -0.69809,0.43086 0,0 z m 1.91408,0.79843 c 0.91122,-0.86766 -1.4044,-0.54708 0,0 z m 3.28056,1.82843 c 0.55355,-0.81845 -1.77223,-0.30881 0,0 z m -6.29961,-4.39144 c 1.41538,-0.91565 -1.82813,-0.013 0,0 z m 1.43584,0.71599 c -0.0391,-0.48406 -0.51138,0.21673 0,0 z m 7.17656,4.4793 c 1.1537,0.72806 6.73711,1.59576 3.24086,0.29838 -0.58499,0.12335 -6.48277,-1.66821 -3.24086,-0.29838 z m -11.39301,-8.87322 c -0.11292,-0.48549 -1.79068,-0.53596 0,0 z m 3.34093,1.94714 c 0.86953,-0.60645 -1.80463,-0.46773 0,0 z m 2.81023,1.72306 c 1.24769,-0.47046 -2.02405,-0.47264 0,0 z m -7.5106,-5.15082 c 1.35375,1.03818 5.45962,0.13291 2.07317,-0.61974 -1.54125,-0.82157 -5.015,-1.38398 -2.64726,0.49535 l 0.57409,0.12422 z m 9.41404,5.74576 c 0.56375,-0.96078 -2.36474,-0.54864 0,0 z m -2.8607,-2.27349 c 3.31027,0.93641 -2.7836,-2.09337 -0.81671,-0.34442 l 0.43642,0.19719 0.38133,0.14723 z m 5.73533,3.31488 c 3.13502,0.0304 -2.83159,-0.43216 0,0 z m -13.49488,-8.60094 c -0.12205,-0.58395 -0.77363,0.0491 0,0 z m 18.7981,11.57564 c 0.0834,-1.05463 -1.02318,0.78483 0,0 z m -13.44815,-8.29934 c -0.19024,-0.55533 -0.97958,-0.0217 0,0 z m -5.05266,-3.6427 c 1.79985,-0.10815 -2.46406,-0.79304 0,0 z m -5.98555,-3.86903 c -0.22367,-0.86279 -1.95851,-1.55094 0,0 z m 15.71352,9.97233 c -0.32965,-0.37613 -0.15505,0.0821 0,0 z m 9.78079,6.00205 c -0.0261,-0.57453 -0.53249,0.2176 0,0 z m -10.64636,-6.8959 c 0.17634,-0.74022 -1.53465,-0.22411 0,0 z m -7.28644,-4.61785 c 1.33894,-0.14333 -2.14488,-0.90518 0,0 z m 12.32577,7.65892 c 2.08655,-0.82665 -2.0337,-0.40349 0,0 z m -6.41141,-4.35213 c 2.40483,0.31011 -2.8613,-1.63563 -0.52784,-0.17416 z m 8.3578,5.13896 c 2.24517,-1.34225 1.5049,3.14305 3.80896,0.37873 2.27288,-1.65943 -1.96268,2.05159 0.83842,0.29578 2.02575,-1.35484 5.01774,0.64224 6.90806,1.2939 1.35923,-0.0669 2.68067,1.17538 4.07425,0.41956 2.68247,-0.72254 -5.24563,-1.07161 -3.16742,-2.35357 -2.45451,0.71438 -4.26804,-0.85163 -5.47586,-2.42385 -2.7532,-0.63577 -5.93664,-2.04338 -7.31072,-4.47991 -0.56037,-0.91482 0.80928,0.12899 -0.48406,-1.36652 -1.65909,-1.47563 -2.48757,-3.1507 -3.60122,-4.94443 -1.33048,-0.70973 -1.48545,-2.79893 -1.62,-0.0699 0.009,-1.72223 -1.60632,-2.88145 -2.00107,-2.39957 -0.009,-1.65865 1.7304,-0.82726 0.51419,-2.05449 -0.26189,-1.71907 -1.12377,-3.51045 -1.38285,-5.45142 -0.40262,-0.93562 -0.0573,-2.93948 -1.37391,-0.82144 -0.47958,2.23839 -0.15939,-2.75077 0.58704,-1.10553 0.97945,-1.67881 -0.35137,-1.48136 -0.40653,-1.24826 0.63807,-1.41647 0.40349,-3.42567 -0.16635,-2.65917 0.34008,-1.50129 0.53696,-5.52525 -0.50855,-4.81212 0.63407,-1.56992 1.20248,-7.1836 -1.55011,-5.04328 -1.11549,0.013 -3.04742,0.40479 -3.96054,0.8591 2.86321,1.57821 -0.28796,0.56992 -1.45352,0.31923 -0.15158,1.46034 -1.3062,0.82874 -2.74847,0.84307 2.30345,0.28492 -1.12178,2.35597 -2.44326,1.5515 -1.7162,0.82027 1.48114,2.86778 0.0348,3.50081 0.17807,0.95443 -2.62925,-0.34442 -2.40878,1.85944 -1.66617,-0.70087 -0.22976,2.61461 0.6041,1.49326 2.83373,0.76698 1.99491,2.51549 2.0671,4.17649 -0.46174,0.9679 -2.27957,-2.275 -0.40523,-2.12477 -1.47902,-2.40261 -1.63607,-0.86844 -2.86508,0.24757 -0.28623,0.0812 3.13493,1.58807 0.98813,2.33324 1.88876,0.29144 1.94245,1.94418 2.32691,2.99009 1.13525,1.18236 0.90293,-1.30559 2.26124,0.11509 -0.85949,-1.26593 -4.55288,-3.56678 -1.57921,-2.82886 -0.013,-1.27405 -0.53783,-2.30145 0.37395,-2.27657 0.90223,-1.6338 -0.94483,4.02843 1.08877,1.95196 0.56259,-0.24583 0.70235,-1.63594 1.71416,0.13116 1.46972,1.44579 0.53071,2.49343 -1.54221,1.1696 0.37092,1.25825 2.77327,1.70786 2.32179,3.6755 0.47915,1.73057 1.14818,1.09315 1.73188,0.99313 0.45773,1.68145 0.71781,0.44505 0.73957,-0.35528 2.09641,0.44883 1.60536,1.68801 2.26132,2.5538 1.44462,0.65205 -2.0677,-4.41984 0.41218,-1.5251 2.6093,2.35588 0.97858,3.33928 -1.36305,2.96185 1.4821,-0.11944 1.95999,2.00368 3.81383,1.92907 1.69053,0.80419 2.83502,3.89304 -0.079,2.60722 -1.01064,-0.91126 -4.58711,-2.03539 -1.666,-0.30186 2.698,1.24938 4.8408,1.99682 7.44294,3.56513 1.86222,1.32939 2.66668,2.85205 3.37255,3.15347 -1.5651,0.74757 -4.71667,-0.59693 -2.37642,-1.00894 -1.45965,-0.26581 -3.1014,-1.00407 -1.70335,0.81458 1.18888,0.99261 4.21197,0.88746 4.75384,0.99995 -0.45986,1.01216 -1.24769,1.09264 0.013,1.17112 -1.413,0.75304 0.4534,0.86966 0.58404,1.2999 z m -2.88954,-8.15966 c -0.85962,-0.89906 -1.08186,-2.58294 -0.15244,-1.1177 0.47658,0.19154 1.52661,2.75186 0.15244,1.1177 z m 9.40987,5.97734 c 0.53644,-0.0348 0.013,0.4074 0,0 z m -10.76718,-8.18172 c -0.0304,-1.35927 0.31098,1.04838 0,0 z m -0.93528,-1.25829 c -1.0813,-2.08933 1.36313,0.59164 0,0 z m -11.33329,-7.82228 c 0.63529,-0.16938 0.31228,1.08647 0,0 z m 9.01985,4.88905 c 0.39002,-1.46503 0.45825,1.22932 0,0 z m -6.37223,-4.43087 c -0.44927,-0.80846 0.93962,0.7582 0,0 z m 5.46878,1.75311 c -1.02444,-2.2952 0.72524,-1.25368 0.22672,0.37613 z m -9.43093,-6.28949 c -0.45774,-0.75299 -1.21568,-2.96237 -0.97172,-3.63683 0.2202,1.09845 2.33585,4.72717 1.03756,1.5032 -1.43475,-2.70255 1.71503,0.87717 2.03899,1.55124 0.15115,0.67056 -0.88515,-0.18328 -0.18328,1.38916 -1.28022,-1.79013 -0.75573,0.98879 -1.92173,-0.80677 z m -2.91473,-2.00841 c 0.11988,-1.75082 0.66726,1.20052 0,0 z m 1.31106,0.45131 c 0.62565,-1.32149 1.0608,1.8422 0,0 z m -3.15378,-2.4397 c -1.08516,-1.07831 -1.87043,-2.07235 0.0508,-0.66926 0.74027,0.0304 -1.64475,-2.26041 0.17851,-0.72698 1.91686,0.34964 0.94662,3.14301 -0.22932,1.39624 z m 1.65666,-0.0434 c 0.63016,-0.62448 0.33486,0.6147 0,0 z m 1.01936,0.32704 c -0.95534,-1.79073 1.15948,0.75074 0,0 z m -2.02639,-1.93653 c -3.15465,-2.80736 3.96393,1.46798 0.51533,0.5205 z m 9.03839,5.25154 c -1.36514,-0.81854 -0.3618,-5.76231 0.10337,-2.38112 1.32713,-0.42911 -0.073,1.74622 0.91656,1.72606 -0.15593,1.37261 -0.59872,1.86609 -1.02028,0.65506 z m 3.34305,1.97584 c 0.13378,-1.48996 0.28188,1.01862 0,0 z m -0.58065,-0.57358 c 0.15028,-0.63646 0.013,0.74957 0,0 z m -11.18205,-7.57614 c -2.02657,-2.79611 5.88995,2.82838 1.29812,0.70926 -0.47963,-0.12552 -1.0572,-0.17026 -1.29812,-0.70926 z m 6.43772,3.41325 c -0.19197,-2.35436 0.42825,0.39046 -1.3e-4,0 z m 4.8877,3.13541 c 0.37874,-1.34108 0.0261,0.88715 0,0 z m -11.01492,-7.61588 c 1.20452,-0.25756 4.99163,2.11539 1.51385,0.67785 -0.38612,-0.42781 -1.21021,-0.23367 -1.51385,-0.67785 z m 10.34337,5.1552 c 0.12812,-2.40743 0.71911,-1.43802 0.004,0.34442 z m -9.4467,-5.99289 c 0.49105,-0.7199 -1.3029,-3.2548 0.25842,-0.90931 0.67464,0.53609 1.9533,0.89802 0.82435,1.12352 1.77549,1.5664 -0.43302,0.42434 -1.08295,-0.21412 z m 8.93519,5.24089 c 0.33921,-2.74242 0.29925,1.60671 0,0 z m -9.96025,-7.77389 c 0.37483,-0.16026 0.19849,0.49948 0,0 z m 2.33069,1.3872 c 0.5998,-1.25859 1.10649,1.40375 0,0 z m 6.57423,3.65721 c -0.009,-0.48341 0.12422,0.70313 0,0 z m -0.38134,-0.84312 c -0.91239,-2.25116 0.84885,1.19188 0,0 z m -0.56032,-1.47593 c -0.15332,-0.93024 0.5205,1.16865 0,0 z m 0.91182,-1.48223 c -0.62616,-1.1034 0.79074,-4.86263 0.94875,-2.53121 -0.66083,1.81662 -0.19111,2.83285 0.27015,0.39611 0.85145,-1.9176 -0.18372,3.78407 -1.2192,2.13497 z m 0.93698,-5.59052 c 0.27276,-0.3353 0.0604,0.40392 0,0 z m -1.5648,30.8347 c -0.37134,-0.32401 0.0447,0.2063 0,0 z m 3.22362,1.63068 c 1.79317,0.46017 1.784,-0.27884 0.16331,-0.49848 -0.87165,-0.81093 -3.62229,-1.67107 -1.16039,-0.10033 0.16287,0.41305 0.67824,0.40349 0.99708,0.5992 z m -6.36658,-4.22866 c 0.98779,0.73671 3.72097,2.08781 1.40735,0.28058 0.78005,-0.90635 -1.49313,-1.38876 -0.73905,-1.995 -1.91799,-1.17363 -1.51298,-1.06922 -0.16895,-1.0323 -2.30506,-1.03031 0.33313,-0.95322 0.20934,-1.48119 -0.88885,-0.17547 -4.41467,-1.56722 -2.34041,0.11466 -2.10866,-1.07513 -0.50282,0.40045 -1.13985,0.24453 -2.15617,-0.58791 1.92029,1.64223 -0.34225,1.08864 1.23705,0.98028 3.32968,2.51098 0.52276,1.03743 -0.37049,0.53227 2.0085,1.33912 2.59223,1.74322 z m 3.37155,1.93693 c 4.0994,1.32105 -2.00985,-1.61392 0,0 z m 17.2592,10.45564 c 0.0517,-0.81332 -0.56037,0.69375 0,0 z m 1.77392,0.74657 c 0.94579,-0.91648 0.0391,1.45986 1.56719,-0.22412 0.013,-1.20569 -0.0434,-1.91786 -1.7566,-0.45322 -0.4712,0.26147 -0.68163,1.37252 0.1898,0.67755 z m -28.15885,-17.6845 c -0.29013,-1.14184 -2.03617,-1.13589 0,0 z m 1.89414,1.24126 c -0.7033,-1.16629 -2.50976,-1.05584 0,0 z m 10.77622,6.49893 c 1.05207,0.93449 4.83219,0.68567 1.27788,0.11509 -0.52619,-0.77835 -3.34271,-0.59103 -1.27788,-0.11509 z m 14.81385,9.14871 c 1.61931,-1.35875 -1.56892,0.60619 0,0 z m 3.36773,2.31431 c 0.009,-0.43602 -0.69796,0.1911 0,0 z m 0.004,-0.61049 c 1.79317,-1.89988 -1.73757,0.11205 -4e-5,0 z M 135.2262,215.10766 c -1.52831,-2.18063 -0.95009,-3.16081 -2.42394,-4.94129 -0.27927,-1.36158 -2.52834,-4.45125 -1.16338,-1.17799 1.25021,1.91439 1.62173,4.87841 3.58732,6.11928 z m 34.9536,21.88917 c 3.29897,-2.13228 -1.3541,-0.92881 0,0 z m 2.51836,0.98653 c 1.652,-1.41842 -1.04495,-0.29664 0,0 z m -33.37452,-21.38565 c 0.47268,-0.7034 -1.22107,-0.0899 0,0 z m 32.84868,20.7121 c 1.59962,-1.03136 -0.36875,-0.87304 -0.2897,0.0947 z m -21.70828,-13.68282 c -0.0573,-0.6964 -0.84468,0.0591 0,0 z m 1.34151,0.77197 c -0.42607,-0.86201 -0.65553,0.13551 0,0 z m 22.93342,13.60777 c 2.0492,-1.47828 -1.24217,-0.28318 -0.42998,0.28014 z m -0.78465,-0.37917 c 1.66938,-1.39888 -1.76241,0.61992 0,0 z m 4.00929,2.66998 c 1.12079,-0.75073 -1.36168,-0.24279 0,0 z m -37.61139,-24.207 c 1.50246,0.33661 6.00413,3.70012 3.34827,0.2328 -1.36014,-0.40262 -0.54439,-3.72757 -1.93185,-3.1391 0.93124,1.55568 0.7662,2.21785 -1.18901,1.23705 -2.45729,-1.19952 -1.3809,0.59447 -0.90071,1.08891 -0.65436,0.14897 0.8657,0.56796 0.6733,0.58047 z m -6.84504,-5.40581 c 0.26885,-1.11248 -2.47667,-6.12023 -1.29656,-2.50923 0.42565,0.75642 0.38221,2.18996 1.29656,2.50923 z m 12.5636,7.74575 c -0.77366,-0.64702 -0.0348,-0.0916 0,0 z m 1.90513,0.4434 c -0.001,-1.17846 -2.10583,-0.47849 0,0 z m 16.50956,10.40778 c -0.31532,-0.80515 -1.24465,-0.0217 1.3e-4,0 z m 0.79282,0.57909 c -0.11727,-0.4507 -0.45704,0.0869 0,0 z m 6.54387,4.12185 c 0.62934,-0.46495 -0.78539,-0.0595 0,0 z m -34.89553,-22.42494 c 1.80016,-0.69697 -1.92876,-0.497 0,0 z m 26.10575,16.44679 c -0.0217,-1.16539 -1.14762,0.28926 0,0 z m -26.817,-18.10418 c 1.15631,-0.39046 -1.06975,-0.25756 0,0 z m 3.35635,1.62581 c -0.0261,-0.38307 -0.35485,0.14507 0,0 z m 40.93753,25.10341 c 1.48696,-0.30142 4.8754,0.75686 5.42306,-0.39437 -1.8057,-0.0443 -6.24728,-1.27397 -6.45745,0.29361 l 0.39523,0.0621 0.63903,0.0391 z m -39.87083,-24.83456 c 0.0261,-1.18098 -0.9209,-0.0443 0,0 z m -8.82465,-6.12153 c -0.40089,-2.24999 -1.52427,-0.34052 0,0 z m 2.10431,0.52896 c 0.0261,-0.72246 -1.92615,-0.6501 0,0 z m 1.20261,0.59064 c -0.3479,-0.28187 -0.27189,0.35572 0,0 z m 7.56689,4.85413 c 0.35615,-0.32748 -0.84338,-0.24235 0,0 z m -8.36788,-6.18621 c -0.20326,-1.69943 -2.43735,-0.25451 0,0 z m -4.31425,-2.79936 c -0.0612,-0.78431 -0.42,0.29577 0,0 z m 0.64176,-0.48463 c -0.10468,-0.92998 -0.55103,0.11857 0,0 z m 3.54576,2.11652 c 1.49929,-0.58895 -2.7311,-1.21824 -0.3062,-0.11119 z m 47.45436,29.31178 c 0.95968,-0.87982 -1.21964,-0.27189 0,0 z m 5.73283,2.97166 c 0.38456,-1.13754 -0.96827,0.14985 0,0 z m -52.82492,-34.14201 c 0.15766,-1.10041 -1.18862,0.21847 0,0 z m -5.04471,-3.37993 c -0.27102,-1.55355 -0.23367,-4.28047 2.35822,-3.35891 -3.46015,0.68697 2.39479,4.30053 1.65544,1.44748 1.45482,0.0712 2.8461,-0.85984 2.08255,0.55311 2.86656,-0.31662 4.85387,-2.80232 7.62283,-2.45399 2.15687,-0.28535 4.51505,-0.50195 6.83931,-1.37008 1.91104,-0.13769 3.75059,-2.19514 2.70312,-3.41468 -2.60596,-0.22064 -5.33397,0.10554 -8.21438,0.67811 -3.19192,0.66352 -6.09114,1.9242 -9.31167,2.46533 -3.13906,0.42173 0.63142,1.16182 -0.26798,1.32674 -1.63807,0.56832 1.95343,0.95161 -0.21239,1.55076 -1.33751,-0.25451 -2.72979,-0.7139 -2.15843,-2.12347 -3.00698,0.39003 -5.6492,1.6382 -3.27352,4.69816 l 0.17677,0.001 v -1.3e-4 z m 7.2457,-3.69022 c 0.70505,-2.59723 3.77722,2.13724 1.15557,0.34486 -0.31315,-0.23454 -0.82808,-0.42564 -1.15557,-0.34486 z m 0.13769,-1.2592 c 1.01749,-0.75807 0.54095,0.42477 0,0 z m 1.29199,0.0217 c 0.0921,-1.19509 2.95777,0.63268 0.47268,0.43042 z m 1.76745,-0.7106 c 0.64545,-0.75417 0.18502,0.67082 0,0 z m 0.45231,-0.30273 c 1.0747,-1.2913 6.08618,-0.82413 2.41794,-0.12595 -0.98327,-0.74023 -1.73692,0.43654 -2.41794,0.12595 z m 6.54009,-1.00816 c -0.1633,-3.52726 3.2492,1.25356 0,0 z m 1.85575,-0.013 c 0.67847,-1.77779 2.63281,-0.71338 0.31446,-0.35745 0.0513,0.18937 -0.0686,0.91782 -0.31446,0.35745 z m -14.97737,9.42807 c 2.02717,-1.24139 -2.15205,-1.077 0,0 z m 1.49886,0.41652 c 0.71077,-0.75577 -1.54434,-0.30664 0,0 z m -4.41633,-3.13502 c 1.15831,-0.8898 -1.37065,-0.33834 0,0 z m 59.85795,37.44716 c 0.0326,-1.03235 -0.88528,0.46525 0,0 z m -6.08227,-4.15043 c 0.17252,-1.18854 -0.78172,0.1038 0,0 z m 7.7548,4.55101 c 1.61952,0.004 4.90698,-0.50291 1.38326,-0.50134 -0.55295,0.0864 -3.22198,0.0677 -1.38326,0.50134 z M 136.6411,201.2096 c 1.31067,-0.0899 2.05064,-1.44574 -0.25364,-1.36783 -3.57095,-0.36961 3.15065,1.22272 -0.45839,0.76737 -0.48484,0.32097 0.68341,0.68932 0.71164,0.60046 z m 1.15431,0.5843 c -0.13724,-0.84155 -0.40566,0.44701 0,0 z m 1.36926,-3.65121 c 0.5688,-0.70548 -0.787,-0.18894 0,0 z m -4.3589,-7.28619 c 2.3392,-0.79577 5.53793,-1.68996 6.64238,0.39177 -1.124,-1.35285 -0.45379,-2.68467 0.60797,-0.7067 1.5013,2.00134 2.25277,-0.91022 1.27644,-1.58151 1.11271,1.38255 2.37821,2.03582 0.74501,0.0873 1.77479,-2.13494 -3.55376,0.2797 -4.76492,0.25538 -0.58278,0.26147 -6.01617,1.38568 -4.50688,1.55376 z m 1.37086,-2.62546 c 1.33408,-1.0069 4.61382,0.59889 2.5092,-1.00069 -0.20587,-0.18198 -4.60912,1.21299 -2.5092,1.00069 z m 4.86351,0.20066 c 1.56132,0.0391 -0.67347,-2.09745 1.18706,-1.12895 -0.30576,-0.99821 -2.1662,-1.1851 -3.07577,-1.58395 -0.51446,0.9127 1.04725,2.72519 1.88871,2.7129 z m -4.0107,-4.41485 c 0.54017,-0.73223 -0.94658,0.37135 0,0 z m 1.98782,0.47581 c 2.51602,-0.33357 -0.64141,-1.08352 -0.5072,-0.0261 z m -3.71162,-2.90422 c -1.77162,-2.3127 3.33172,0.38872 1.53178,-2.03269 -1.51493,-1.20635 -2.97071,1.35753 -1.53178,2.03269 z m 22.73545,12.24598 c 0.81263,-1.44044 -3.35461,-1.94161 -0.54721,-0.51051 0.25843,0.0864 0.19979,0.6101 0.54721,0.51051 z"
       style="fill:#000000;stroke-width:0.36475989"
       inkscape:connector-curvature="0" />
  </g>
  <style
     id="style8905"
     type="text/css">
	.st0{fill:#2A3238;}
</style>
</svg>
